<svg version="1" xmlns="http://www.w3.org/2000/svg" width="560" height="560" viewBox="0 0 420.000000 420.000000"><path d="M194.5 12.7C142.2 17 94.1 41.2 60.5 80.3 48.3 94.4 40.4 106.4 32 123.5c-7.6 15.5-11.4 26.3-15.7 44.1-2.7 11.7-2.8 12.5-2.8 41.4 0 27.1.2 30.4 2.3 40 5.8 26.4 17.6 53.3 32.7 75 9.1 13.1 29.6 34.4 41.5 43.2 24.8 18.2 50.4 29.7 81.5 36.4 12.2 2.6 14.5 2.8 37.5 2.8 23.1.1 25.3-.1 38-2.8 24.6-5.1 43.6-12.4 63.8-24.4 15.3-9.1 24.3-16.2 38.3-30.2 17.4-17.3 29.7-34.7 39.5-55.5 42.5-91 9.2-200.8-76.7-252.9-34.4-20.8-78-31.2-117.4-27.9zM233 37.4c46.9 6.3 89.3 31.9 117.5 71.1 7.8 10.7 19.2 33.4 23.4 46.3 23.9 73-2.6 152-65.9 196.4-19.4 13.6-43.4 23.5-67.3 27.8-68.9 12.5-137.3-16.8-176-75.5C53.3 286.2 44.6 265 39.8 243c-2-9.3-2.2-13.3-2.3-35 0-23.4.2-25 2.9-36.5C57.4 99.2 115.3 46.4 188 37.1c10.5-1.4 33.6-1.2 45 .3z"/><path d="M188.5 42.1c-3.8.5-12.6 2.3-19.5 4C119.9 58.2 79.5 91 58 136.2c-26.1 54.9-21.4 116.9 12.8 168.3 8.3 12.5 27.9 32.4 41.1 41.8 44.7 31.9 105.2 40.1 155.6 21.2 72.6-27.3 117.7-99.7 109.4-175.3-8.2-74.7-62.1-133.7-135.5-148.2-12.5-2.5-41.1-3.5-52.9-1.9zm-52 97.3c2 3 12.5 37 12.7 40.9.2 5.2-2.1 6.2-13.7 6.2-8.4 0-10.8-.3-12.1-1.7-1.8-1.8-13.4-37.7-13.4-41.6 0-5.2 2.3-6.2 14.1-6.2 10.4 0 10.9.1 12.4 2.4zm86.3-.6c.9.9 8.2 22.1 16.2 47 8 24.8 14.7 45.2 15.1 45.2.3 0 6.7-20.4 14.3-45.3 7.6-24.8 14.5-46 15.3-47 1.3-1.4 3.4-1.7 11.7-1.7 11.7 0 14.6 1.2 14.6 6 0 2.5-36.1 120.5-40.6 132.8-.9 2.3-2.4 4.7-3.4 5.2-2.8 1.5-22.3 1.3-24.2-.3-1-.7-7.9-20.6-16.3-46.7-8.1-25-15-45.8-15.3-46.2-.4-.4-7.4 20.1-15.5 45.5-8.8 27.6-15.4 46.7-16.4 47.4-1.1.9-5.4 1.3-12.7 1.3-11.8 0-14.6-1-14.6-5.4 0-3.9 44.9-137 46.7-138.4 1.1-.8 5.4-1.2 12.5-1.2 9 0 11.1.3 12.6 1.8z"/></svg>